<?xml version="1.0" encoding="utf-8"?>
<!-- Generator: Adobe Illustrator 21.0.0, SVG Export Plug-In . SVG Version: 6.00 Build 0)  -->
<svg version="1.1" id="Ebene_1" xmlns="http://www.w3.org/2000/svg" xmlns:xlink="http://www.w3.org/1999/xlink" x="0px" y="0px"
	 viewBox="0 0 566.9 566.9" style="enable-background:new 0 0 566.9 566.9;" xml:space="preserve">
<style type="text/css">
	.st0{fill:#FDC800;}
</style>
<path class="st0" d="M529.8,218.3c3.9-3.1,9.7-0.2,9.7,4.7v204.5c0,26.5-21.5,48-48,48h-416c-26.5,0-48-21.5-48-48V223.1
	c0-5,5.7-7.8,9.7-4.7c22.4,17.4,52.1,39.5,154.1,113.6c21.1,15.4,56.7,47.8,92.2,47.6c35.7,0.3,72-32.8,92.3-47.6
	C477.8,257.9,507.4,235.7,529.8,218.3z M283.5,347.5c23.2,0.4,56.6-29.2,73.4-41.4c132.7-96.3,142.8-104.7,173.4-128.7
	c5.8-4.5,9.2-11.5,9.2-18.9v-19c0-26.5-21.5-48-48-48h-416c-26.5,0-48,21.5-48,48v19c0,7.4,3.4,14.3,9.2,18.9
	c30.6,23.9,40.7,32.4,173.4,128.7C226.9,318.3,260.3,347.9,283.5,347.5L283.5,347.5z"/>
<g>
	<path d="M387.2,321.3c-11.1,20.5-21.3,38.5-30.6,57c-4.7,9.4-10.9,12.7-20.9,10c-12.2-3.3-24.4-6.3-38.3-9.9
		c2.8-6.4,4.4-11,6.8-15.3c13.2-24.3,26.3-48.7,40.1-72.7c3.8-6.6,3.5-11.4-0.1-17.7c-12.8-22.9-24.8-46.2-37.6-69.1
		c-4.5-8.1-3.2-11.9,5.5-15.3c37.8-14.6,37.8-14.8,56.7,20.8c6.1,11.5,11.9,23.2,19,37c5.7-10.4,10.5-19.2,15.3-27.9
		c6.2-11.1,12.2-22.4,19-33.2c1.8-2.8,6.5-6.4,8.9-5.8c14.7,3.3,29.1,7.8,45.4,12.4c-6.5,12.5-11.5,22.5-16.9,32.3
		c-9.1,16.6-18.1,33.3-27.9,49.5c-3.7,6.2-3.4,10.7,0.2,16.7c13.9,23.9,27.3,48.1,40.9,72.3c1.9,3.5,3.6,7.1,6,11.8
		c-15.8,8.8-32.4,13.3-49.6,15.1c-2.5,0.3-6.4-4.4-8.2-7.6c-9.1-15.8-17.6-31.9-26.4-47.8C392.4,330.5,390.2,326.8,387.2,321.3z"/>
	<path d="M269.3,192.6c-4.5,9.1-8,16.7-11.9,23.9c-10.5,19.2-21,38.4-32.1,57.1c-3.7,6.3-3.2,10.8,0.3,16.8
		c13.6,23.3,26.6,46.8,39.8,70.3c2.3,4.1,4.3,8.3,7.1,13.7c-15.9,8.9-32.6,13.2-49.8,15.2c-2.2,0.3-5.8-3.9-7.5-6.8
		c-9.4-16.4-18.4-33.1-27.6-49.6c-1.9-3.4-3.8-6.7-6.7-11.7c-9.5,17.7-18.2,33.9-27,50.1c-10.9,19.9-11.1,20.2-32.9,14.8
		c-39.5-9.8-31.1-6.2-16.3-35.6c10.5-20.8,22.2-41,33.9-61.1c3.3-5.8,3.1-10.1-0.1-15.9c-13.2-23.5-25.6-47.4-38.6-71
		c-4-7.2-2.5-10.8,5.2-13.9c38.5-15.6,38.5-15.8,57.6,20.6c6,11.5,11.8,23.2,18.8,36.7c8.4-15.1,15.6-28.8,23.4-42.1
		c18.4-31.2,8.9-28.5,45.2-18.3C255.9,187.4,261.6,189.8,269.3,192.6z"/>
</g>
</svg>
